<mxfile host="app.diagrams.net" agent="Mozilla/5.0 (Windows NT 10.0; Win64; x64) AppleWebKit/537.36 (KHTML, like Gecko) Chrome/136.0.0.0 Safari/537.36" version="27.0.9">
  <diagram name="Страница — 1" id="m1e9WG0PMQMn1_g0s8CJ">
    <mxGraphModel dx="1042" dy="562" grid="1" gridSize="10" guides="1" tooltips="1" connect="1" arrows="1" fold="1" page="1" pageScale="1" pageWidth="827" pageHeight="1169" math="0" shadow="0">
      <root>
        <mxCell id="0" />
        <mxCell id="1" parent="0" />
        <mxCell id="t5ZoXOPLaymug95pswVh-12" value="&lt;span style=&quot;font-size:12.0pt;line-height:&lt;br/&gt;107%;font-family:&amp;quot;Times New Roman&amp;quot;,serif;mso-fareast-font-family:Aptos;&lt;br/&gt;mso-fareast-theme-font:minor-latin;mso-ansi-language:EN-US;mso-fareast-language:&lt;br/&gt;EN-US;mso-bidi-language:AR-SA&quot; lang=&quot;EN-US&quot;&gt;API and excipient properties&lt;/span&gt;" style="ellipse;whiteSpace=wrap;html=1;fillColor=light-dark(#FFFFFF,#3333FF);" vertex="1" parent="1">
          <mxGeometry x="40" y="40" width="120" height="80" as="geometry" />
        </mxCell>
        <mxCell id="t5ZoXOPLaymug95pswVh-14" value="&lt;span style=&quot;font-size:12.0pt;line-height:&lt;br/&gt;107%;font-family:&amp;quot;Times New Roman&amp;quot;,serif;mso-fareast-font-family:Aptos;&lt;br/&gt;mso-fareast-theme-font:minor-latin;mso-ansi-language:EN-US;mso-fareast-language:&lt;br/&gt;EN-US;mso-bidi-language:AR-SA&quot; lang=&quot;EN-US&quot;&gt;Dispensing accuracy&amp;nbsp;&lt;/span&gt;" style="ellipse;whiteSpace=wrap;html=1;fillColor=light-dark(#FFFFFF,#3333FF);" vertex="1" parent="1">
          <mxGeometry x="40" y="160" width="120" height="80" as="geometry" />
        </mxCell>
        <mxCell id="t5ZoXOPLaymug95pswVh-15" value="&lt;span style=&quot;font-size:12.0pt;line-height:&lt;br/&gt;107%;font-family:&amp;quot;Times New Roman&amp;quot;,serif;mso-fareast-font-family:Aptos;&lt;br/&gt;mso-fareast-theme-font:minor-latin;mso-ansi-language:EN-US;mso-fareast-language:&lt;br/&gt;EN-US;mso-bidi-language:AR-SA&quot; lang=&quot;EN-US&quot;&gt;Milling setting&lt;/span&gt;" style="ellipse;whiteSpace=wrap;html=1;fillColor=light-dark(#FFFFFF,#3333FF);" vertex="1" parent="1">
          <mxGeometry x="40" y="280" width="120" height="80" as="geometry" />
        </mxCell>
        <mxCell id="t5ZoXOPLaymug95pswVh-16" value="&lt;span style=&quot;font-size:12.0pt;line-height:&lt;br/&gt;107%;font-family:&amp;quot;Times New Roman&amp;quot;,serif;mso-fareast-font-family:Aptos;&lt;br/&gt;mso-fareast-theme-font:minor-latin;mso-ansi-language:EN-US;mso-fareast-language:&lt;br/&gt;EN-US;mso-bidi-language:AR-SA&quot; lang=&quot;EN-US&quot;&gt;Granulation parameters&amp;nbsp;&lt;/span&gt;" style="ellipse;whiteSpace=wrap;html=1;fillColor=light-dark(#FFFFFF,#3333FF);" vertex="1" parent="1">
          <mxGeometry x="40" y="520" width="120" height="80" as="geometry" />
        </mxCell>
        <mxCell id="t5ZoXOPLaymug95pswVh-17" value="&lt;span style=&quot;font-size:12.0pt;line-height:&lt;br/&gt;107%;font-family:&amp;quot;Times New Roman&amp;quot;,serif;mso-fareast-font-family:Aptos;&lt;br/&gt;mso-fareast-theme-font:minor-latin;mso-ansi-language:EN-US;mso-fareast-language:&lt;br/&gt;EN-US;mso-bidi-language:AR-SA&quot; lang=&quot;EN-US&quot;&gt;Drying parameters&amp;nbsp;&lt;/span&gt;" style="ellipse;whiteSpace=wrap;html=1;fillColor=light-dark(#FFFFFF,#3333FF);" vertex="1" parent="1">
          <mxGeometry x="40" y="640" width="120" height="80" as="geometry" />
        </mxCell>
        <mxCell id="t5ZoXOPLaymug95pswVh-18" value="&lt;span style=&quot;font-size:12.0pt;line-height:&lt;br/&gt;107%;font-family:&amp;quot;Times New Roman&amp;quot;,serif;mso-fareast-font-family:Aptos;&lt;br/&gt;mso-fareast-theme-font:minor-latin;mso-ansi-language:EN-US;mso-fareast-language:&lt;br/&gt;EN-US;mso-bidi-language:AR-SA&quot; lang=&quot;EN-US&quot;&gt;Compression force and speed&lt;/span&gt;" style="ellipse;whiteSpace=wrap;html=1;fillColor=light-dark(#FFFFFF,#3333FF);" vertex="1" parent="1">
          <mxGeometry x="40" y="760" width="120" height="80" as="geometry" />
        </mxCell>
        <mxCell id="t5ZoXOPLaymug95pswVh-19" value="&lt;span style=&quot;font-size:12.0pt;line-height:&lt;br/&gt;107%;font-family:&amp;quot;Times New Roman&amp;quot;,serif;mso-fareast-font-family:Aptos;&lt;br/&gt;mso-fareast-theme-font:minor-latin;mso-ansi-language:EN-US;mso-fareast-language:&lt;br/&gt;EN-US;mso-bidi-language:AR-SA&quot; lang=&quot;EN-US&quot;&gt;Coating parameters&amp;nbsp;&lt;/span&gt;" style="ellipse;whiteSpace=wrap;html=1;fillColor=light-dark(#FFFFFF,#3333FF);" vertex="1" parent="1">
          <mxGeometry x="40" y="880" width="120" height="80" as="geometry" />
        </mxCell>
        <mxCell id="t5ZoXOPLaymug95pswVh-20" value="&lt;span style=&quot;font-size:12.0pt;line-height:&lt;br/&gt;107%;font-family:&amp;quot;Times New Roman&amp;quot;,serif;mso-fareast-font-family:Aptos;&lt;br/&gt;mso-fareast-theme-font:minor-latin;mso-ansi-language:EN-US;mso-fareast-language:&lt;br/&gt;EN-US;mso-bidi-language:AR-SA&quot; lang=&quot;EN-US&quot;&gt;Packaging humidity&lt;/span&gt;" style="ellipse;whiteSpace=wrap;html=1;fillColor=light-dark(#FFFFFF,#3333FF);" vertex="1" parent="1">
          <mxGeometry x="40" y="1000" width="120" height="80" as="geometry" />
        </mxCell>
        <mxCell id="t5ZoXOPLaymug95pswVh-22" value="&lt;span style=&quot;font-size: 12pt;&quot;&gt;&lt;font style=&quot;&quot; face=&quot;Times New Roman&quot;&gt;Blend uniformity&lt;/font&gt;&lt;/span&gt;" style="ellipse;whiteSpace=wrap;html=1;fillColor=light-dark(#FFFFFF,#666600);" vertex="1" parent="1">
          <mxGeometry x="280" y="310" width="120" height="80" as="geometry" />
        </mxCell>
        <mxCell id="t5ZoXOPLaymug95pswVh-23" value="&lt;span style=&quot;font-size: 12pt;&quot;&gt;&lt;font face=&quot;Times New Roman&quot;&gt;Granule size&lt;/font&gt;&lt;/span&gt;" style="ellipse;whiteSpace=wrap;html=1;fillColor=light-dark(#FFFFFF,#666600);" vertex="1" parent="1">
          <mxGeometry x="280" y="80" width="120" height="80" as="geometry" />
        </mxCell>
        <mxCell id="t5ZoXOPLaymug95pswVh-24" value="&lt;span style=&quot;font-size: 12pt;&quot;&gt;&lt;font style=&quot;&quot; face=&quot;Times New Roman&quot;&gt;Moisture content&lt;/font&gt;&lt;/span&gt;" style="ellipse;whiteSpace=wrap;html=1;fillColor=light-dark(#FFFFFF,#666600);" vertex="1" parent="1">
          <mxGeometry x="290" y="540" width="120" height="80" as="geometry" />
        </mxCell>
        <mxCell id="t5ZoXOPLaymug95pswVh-26" value="&lt;span style=&quot;font-size: 12pt; line-height: 107%;&quot;&gt;&lt;font style=&quot;&quot; face=&quot;Times New Roman&quot;&gt;Tablet weight variation&lt;/font&gt;&lt;/span&gt;" style="ellipse;whiteSpace=wrap;html=1;fillColor=light-dark(#FFFFFF,#666600);" vertex="1" parent="1">
          <mxGeometry x="300" y="850" width="120" height="80" as="geometry" />
        </mxCell>
        <mxCell id="t5ZoXOPLaymug95pswVh-28" value="&lt;span style=&quot;font-size: 12pt;&quot;&gt;&lt;font style=&quot;&quot; face=&quot;Times New Roman&quot;&gt;Assay (API content %)&lt;/font&gt;&lt;/span&gt;" style="ellipse;whiteSpace=wrap;html=1;fillColor=light-dark(#FFFFFF,#00FF00);" vertex="1" parent="1">
          <mxGeometry x="560" y="120" width="120" height="80" as="geometry" />
        </mxCell>
        <mxCell id="t5ZoXOPLaymug95pswVh-29" value="&lt;span style=&quot;font-size: 12pt; line-height: 107%;&quot;&gt;&lt;font style=&quot;&quot; face=&quot;Times New Roman&quot;&gt;Content Uniformity&lt;/font&gt;&lt;/span&gt;" style="ellipse;whiteSpace=wrap;html=1;fillColor=light-dark(#FFFFFF,#00FF00);" vertex="1" parent="1">
          <mxGeometry x="560" y="280" width="120" height="80" as="geometry" />
        </mxCell>
        <mxCell id="t5ZoXOPLaymug95pswVh-30" value="&lt;span style=&quot;font-size: 12pt;&quot;&gt;&lt;font style=&quot;&quot; face=&quot;Times New Roman&quot;&gt;Hardness&lt;/font&gt;&lt;/span&gt;" style="ellipse;whiteSpace=wrap;html=1;fillColor=light-dark(#FFFFFF,#00FF00);" vertex="1" parent="1">
          <mxGeometry x="560" y="440" width="120" height="80" as="geometry" />
        </mxCell>
        <mxCell id="t5ZoXOPLaymug95pswVh-31" value="&lt;span style=&quot;font-size: 12pt;&quot;&gt;&lt;font style=&quot;&quot; face=&quot;Times New Roman&quot;&gt;Dissolution&lt;/font&gt;&lt;/span&gt;" style="ellipse;whiteSpace=wrap;html=1;fillColor=light-dark(#FFFFFF,#00FF00);" vertex="1" parent="1">
          <mxGeometry x="560" y="670" width="120" height="80" as="geometry" />
        </mxCell>
        <mxCell id="t5ZoXOPLaymug95pswVh-32" value="&lt;span style=&quot;font-size: 12pt; line-height: 107%;&quot;&gt;&lt;font style=&quot;&quot; face=&quot;Times New Roman&quot;&gt;Moisture Content (final)&lt;/font&gt;&lt;/span&gt;" style="ellipse;whiteSpace=wrap;html=1;fillColor=light-dark(#FFFFFF,#00FF00);" vertex="1" parent="1">
          <mxGeometry x="560" y="880" width="120" height="80" as="geometry" />
        </mxCell>
        <mxCell id="t5ZoXOPLaymug95pswVh-41" value="" style="endArrow=classic;html=1;rounded=0;entryX=0;entryY=0.5;entryDx=0;entryDy=0;" edge="1" parent="1" target="t5ZoXOPLaymug95pswVh-23">
          <mxGeometry relative="1" as="geometry">
            <mxPoint x="160" y="80" as="sourcePoint" />
            <mxPoint x="320" y="80" as="targetPoint" />
          </mxGeometry>
        </mxCell>
        <mxCell id="t5ZoXOPLaymug95pswVh-44" value="" style="endArrow=classic;html=1;rounded=0;entryX=0;entryY=0;entryDx=0;entryDy=0;exitX=1;exitY=0.5;exitDx=0;exitDy=0;" edge="1" parent="1" source="t5ZoXOPLaymug95pswVh-12" target="t5ZoXOPLaymug95pswVh-22">
          <mxGeometry relative="1" as="geometry">
            <mxPoint x="210" y="170" as="sourcePoint" />
            <mxPoint x="330" y="210" as="targetPoint" />
          </mxGeometry>
        </mxCell>
        <mxCell id="t5ZoXOPLaymug95pswVh-47" value="" style="endArrow=classic;html=1;rounded=0;entryX=0;entryY=0.5;entryDx=0;entryDy=0;exitX=1;exitY=0.5;exitDx=0;exitDy=0;" edge="1" parent="1" source="t5ZoXOPLaymug95pswVh-14" target="t5ZoXOPLaymug95pswVh-28">
          <mxGeometry relative="1" as="geometry">
            <mxPoint x="260" y="170" as="sourcePoint" />
            <mxPoint x="398" y="342" as="targetPoint" />
          </mxGeometry>
        </mxCell>
        <mxCell id="t5ZoXOPLaymug95pswVh-48" value="" style="endArrow=classic;html=1;rounded=0;entryX=0.363;entryY=0.003;entryDx=0;entryDy=0;exitX=0.957;exitY=0.303;exitDx=0;exitDy=0;entryPerimeter=0;exitPerimeter=0;" edge="1" parent="1" source="t5ZoXOPLaymug95pswVh-14" target="t5ZoXOPLaymug95pswVh-29">
          <mxGeometry relative="1" as="geometry">
            <mxPoint x="142" y="180" as="sourcePoint" />
            <mxPoint x="280" y="352" as="targetPoint" />
          </mxGeometry>
        </mxCell>
        <mxCell id="t5ZoXOPLaymug95pswVh-49" value="" style="endArrow=classic;html=1;rounded=0;entryX=0;entryY=1;entryDx=0;entryDy=0;exitX=0.5;exitY=0;exitDx=0;exitDy=0;" edge="1" parent="1" source="t5ZoXOPLaymug95pswVh-15" target="t5ZoXOPLaymug95pswVh-23">
          <mxGeometry relative="1" as="geometry">
            <mxPoint x="270" y="270" as="sourcePoint" />
            <mxPoint x="679" y="366" as="targetPoint" />
          </mxGeometry>
        </mxCell>
        <mxCell id="t5ZoXOPLaymug95pswVh-50" value="" style="endArrow=classic;html=1;rounded=0;entryX=0;entryY=0.5;entryDx=0;entryDy=0;exitX=1;exitY=0.5;exitDx=0;exitDy=0;" edge="1" parent="1" source="t5ZoXOPLaymug95pswVh-15" target="t5ZoXOPLaymug95pswVh-22">
          <mxGeometry relative="1" as="geometry">
            <mxPoint x="210" y="310" as="sourcePoint" />
            <mxPoint x="619" y="406" as="targetPoint" />
          </mxGeometry>
        </mxCell>
        <mxCell id="t5ZoXOPLaymug95pswVh-51" value="&lt;font face=&quot;Times New Roman, serif&quot;&gt;&lt;span style=&quot;font-size: 16px;&quot;&gt;Blending time &amp;amp; speed&lt;/span&gt;&lt;/font&gt;" style="ellipse;whiteSpace=wrap;html=1;fillColor=light-dark(#FFFFFF,#3333FF);" vertex="1" parent="1">
          <mxGeometry x="40" y="400" width="120" height="80" as="geometry" />
        </mxCell>
        <mxCell id="t5ZoXOPLaymug95pswVh-52" value="" style="endArrow=classic;html=1;rounded=0;entryX=0;entryY=1;entryDx=0;entryDy=0;exitX=1;exitY=0.5;exitDx=0;exitDy=0;" edge="1" parent="1" source="t5ZoXOPLaymug95pswVh-51" target="t5ZoXOPLaymug95pswVh-22">
          <mxGeometry relative="1" as="geometry">
            <mxPoint x="140" y="400" as="sourcePoint" />
            <mxPoint x="268" y="400" as="targetPoint" />
          </mxGeometry>
        </mxCell>
        <mxCell id="t5ZoXOPLaymug95pswVh-53" value="" style="endArrow=classic;html=1;rounded=0;exitX=1;exitY=0;exitDx=0;exitDy=0;" edge="1" parent="1" source="t5ZoXOPLaymug95pswVh-16" target="t5ZoXOPLaymug95pswVh-23">
          <mxGeometry relative="1" as="geometry">
            <mxPoint x="250" y="502" as="sourcePoint" />
            <mxPoint x="388" y="490" as="targetPoint" />
          </mxGeometry>
        </mxCell>
        <mxCell id="t5ZoXOPLaymug95pswVh-54" value="" style="endArrow=classic;html=1;rounded=0;entryX=0;entryY=0.5;entryDx=0;entryDy=0;exitX=1;exitY=0;exitDx=0;exitDy=0;" edge="1" parent="1" target="t5ZoXOPLaymug95pswVh-24">
          <mxGeometry relative="1" as="geometry">
            <mxPoint x="160" y="560" as="sourcePoint" />
            <mxPoint x="298" y="548" as="targetPoint" />
          </mxGeometry>
        </mxCell>
        <mxCell id="t5ZoXOPLaymug95pswVh-55" value="" style="endArrow=classic;html=1;rounded=0;entryX=0;entryY=1;entryDx=0;entryDy=0;exitX=1;exitY=0;exitDx=0;exitDy=0;" edge="1" parent="1" source="t5ZoXOPLaymug95pswVh-17" target="t5ZoXOPLaymug95pswVh-24">
          <mxGeometry relative="1" as="geometry">
            <mxPoint x="200" y="582" as="sourcePoint" />
            <mxPoint x="338" y="570" as="targetPoint" />
          </mxGeometry>
        </mxCell>
        <mxCell id="t5ZoXOPLaymug95pswVh-57" value="" style="endArrow=classic;html=1;rounded=0;entryX=0;entryY=0.5;entryDx=0;entryDy=0;exitX=1;exitY=0;exitDx=0;exitDy=0;" edge="1" parent="1" target="t5ZoXOPLaymug95pswVh-26">
          <mxGeometry relative="1" as="geometry">
            <mxPoint x="160" y="800" as="sourcePoint" />
            <mxPoint x="298" y="788" as="targetPoint" />
          </mxGeometry>
        </mxCell>
        <mxCell id="t5ZoXOPLaymug95pswVh-58" value="" style="endArrow=classic;html=1;rounded=0;entryX=0;entryY=0.5;entryDx=0;entryDy=0;exitX=0.5;exitY=0;exitDx=0;exitDy=0;" edge="1" parent="1" source="t5ZoXOPLaymug95pswVh-18" target="t5ZoXOPLaymug95pswVh-29">
          <mxGeometry relative="1" as="geometry">
            <mxPoint x="260" y="682" as="sourcePoint" />
            <mxPoint x="398" y="670" as="targetPoint" />
          </mxGeometry>
        </mxCell>
        <mxCell id="t5ZoXOPLaymug95pswVh-59" value="" style="endArrow=classic;html=1;rounded=0;exitX=1;exitY=0;exitDx=0;exitDy=0;entryX=0.293;entryY=0.942;entryDx=0;entryDy=0;entryPerimeter=0;" edge="1" parent="1" target="t5ZoXOPLaymug95pswVh-24">
          <mxGeometry relative="1" as="geometry">
            <mxPoint x="142" y="892" as="sourcePoint" />
            <mxPoint x="330" y="610" as="targetPoint" />
          </mxGeometry>
        </mxCell>
        <mxCell id="t5ZoXOPLaymug95pswVh-60" value="" style="endArrow=classic;html=1;rounded=0;entryX=0.31;entryY=0.972;entryDx=0;entryDy=0;exitX=1;exitY=0;exitDx=0;exitDy=0;entryPerimeter=0;" edge="1" parent="1" target="t5ZoXOPLaymug95pswVh-31">
          <mxGeometry relative="1" as="geometry">
            <mxPoint x="160" y="912" as="sourcePoint" />
            <mxPoint x="298" y="900" as="targetPoint" />
          </mxGeometry>
        </mxCell>
        <mxCell id="t5ZoXOPLaymug95pswVh-61" value="" style="endArrow=classic;html=1;rounded=0;entryX=0;entryY=0.5;entryDx=0;entryDy=0;exitX=1;exitY=0;exitDx=0;exitDy=0;" edge="1" parent="1" target="t5ZoXOPLaymug95pswVh-32">
          <mxGeometry relative="1" as="geometry">
            <mxPoint x="160" y="1032" as="sourcePoint" />
            <mxPoint x="298" y="1020" as="targetPoint" />
          </mxGeometry>
        </mxCell>
        <mxCell id="t5ZoXOPLaymug95pswVh-63" value="" style="endArrow=classic;html=1;rounded=0;entryX=0.5;entryY=0;entryDx=0;entryDy=0;exitX=0.5;exitY=1;exitDx=0;exitDy=0;" edge="1" parent="1" source="t5ZoXOPLaymug95pswVh-23" target="t5ZoXOPLaymug95pswVh-22">
          <mxGeometry relative="1" as="geometry">
            <mxPoint x="430" y="232" as="sourcePoint" />
            <mxPoint x="568" y="220" as="targetPoint" />
          </mxGeometry>
        </mxCell>
        <mxCell id="t5ZoXOPLaymug95pswVh-64" value="" style="endArrow=classic;html=1;rounded=0;entryX=0.5;entryY=0;entryDx=0;entryDy=0;exitX=1;exitY=1;exitDx=0;exitDy=0;" edge="1" parent="1" source="t5ZoXOPLaymug95pswVh-23" target="t5ZoXOPLaymug95pswVh-30">
          <mxGeometry relative="1" as="geometry">
            <mxPoint x="390" y="182" as="sourcePoint" />
            <mxPoint x="528" y="170" as="targetPoint" />
          </mxGeometry>
        </mxCell>
        <mxCell id="t5ZoXOPLaymug95pswVh-65" value="" style="endArrow=classic;html=1;rounded=0;exitX=0.73;exitY=1.003;exitDx=0;exitDy=0;exitPerimeter=0;" edge="1" parent="1" source="t5ZoXOPLaymug95pswVh-23" target="t5ZoXOPLaymug95pswVh-31">
          <mxGeometry relative="1" as="geometry">
            <mxPoint x="330" y="160" as="sourcePoint" />
            <mxPoint x="468" y="148" as="targetPoint" />
          </mxGeometry>
        </mxCell>
        <mxCell id="t5ZoXOPLaymug95pswVh-66" value="" style="endArrow=classic;html=1;rounded=0;entryX=0.077;entryY=0.803;entryDx=0;entryDy=0;entryPerimeter=0;" edge="1" parent="1" source="t5ZoXOPLaymug95pswVh-22" target="t5ZoXOPLaymug95pswVh-28">
          <mxGeometry relative="1" as="geometry">
            <mxPoint x="382" y="252" as="sourcePoint" />
            <mxPoint x="520" y="240" as="targetPoint" />
          </mxGeometry>
        </mxCell>
        <mxCell id="t5ZoXOPLaymug95pswVh-67" value="" style="endArrow=classic;html=1;rounded=0;exitX=1;exitY=0.5;exitDx=0;exitDy=0;" edge="1" parent="1" source="t5ZoXOPLaymug95pswVh-22" target="t5ZoXOPLaymug95pswVh-29">
          <mxGeometry relative="1" as="geometry">
            <mxPoint x="640" y="252" as="sourcePoint" />
            <mxPoint x="778" y="240" as="targetPoint" />
          </mxGeometry>
        </mxCell>
        <mxCell id="t5ZoXOPLaymug95pswVh-68" value="" style="endArrow=classic;html=1;rounded=0;entryX=0;entryY=1;entryDx=0;entryDy=0;exitX=1;exitY=0;exitDx=0;exitDy=0;" edge="1" parent="1" source="t5ZoXOPLaymug95pswVh-24" target="t5ZoXOPLaymug95pswVh-30">
          <mxGeometry relative="1" as="geometry">
            <mxPoint x="390" y="572" as="sourcePoint" />
            <mxPoint x="528" y="560" as="targetPoint" />
          </mxGeometry>
        </mxCell>
        <mxCell id="t5ZoXOPLaymug95pswVh-69" value="" style="endArrow=classic;html=1;rounded=0;entryX=0;entryY=0;entryDx=0;entryDy=0;exitX=1;exitY=1;exitDx=0;exitDy=0;" edge="1" parent="1" source="t5ZoXOPLaymug95pswVh-24" target="t5ZoXOPLaymug95pswVh-31">
          <mxGeometry relative="1" as="geometry">
            <mxPoint x="370" y="492" as="sourcePoint" />
            <mxPoint x="508" y="480" as="targetPoint" />
          </mxGeometry>
        </mxCell>
        <mxCell id="t5ZoXOPLaymug95pswVh-70" value="" style="endArrow=classic;html=1;rounded=0;entryX=0.277;entryY=0.902;entryDx=0;entryDy=0;exitX=0.5;exitY=0;exitDx=0;exitDy=0;entryPerimeter=0;" edge="1" parent="1" source="t5ZoXOPLaymug95pswVh-26" target="t5ZoXOPLaymug95pswVh-28">
          <mxGeometry relative="1" as="geometry">
            <mxPoint x="360" y="700" as="sourcePoint" />
            <mxPoint x="498" y="688" as="targetPoint" />
          </mxGeometry>
        </mxCell>
        <mxCell id="t5ZoXOPLaymug95pswVh-71" value="" style="endArrow=classic;html=1;rounded=0;entryX=0.383;entryY=0.963;entryDx=0;entryDy=0;exitX=1;exitY=0;exitDx=0;exitDy=0;entryPerimeter=0;" edge="1" parent="1" source="t5ZoXOPLaymug95pswVh-26" target="t5ZoXOPLaymug95pswVh-29">
          <mxGeometry relative="1" as="geometry">
            <mxPoint x="392" y="712" as="sourcePoint" />
            <mxPoint x="530" y="700" as="targetPoint" />
          </mxGeometry>
        </mxCell>
        <mxCell id="t5ZoXOPLaymug95pswVh-73" value="" style="endArrow=classic;html=1;rounded=0;exitX=0.5;exitY=1;exitDx=0;exitDy=0;" edge="1" parent="1" source="t5ZoXOPLaymug95pswVh-24" target="t5ZoXOPLaymug95pswVh-32">
          <mxGeometry relative="1" as="geometry">
            <mxPoint x="340" y="630" as="sourcePoint" />
            <mxPoint x="848" y="610" as="targetPoint" />
          </mxGeometry>
        </mxCell>
        <mxCell id="t5ZoXOPLaymug95pswVh-74" value="" style="endArrow=classic;html=1;rounded=0;exitX=1;exitY=0;exitDx=0;exitDy=0;" edge="1" parent="1" target="t5ZoXOPLaymug95pswVh-32">
          <mxGeometry relative="1" as="geometry">
            <mxPoint x="160" y="686" as="sourcePoint" />
            <mxPoint x="298" y="674" as="targetPoint" />
          </mxGeometry>
        </mxCell>
        <mxCell id="t5ZoXOPLaymug95pswVh-76" value="" style="endArrow=classic;html=1;rounded=0;entryX=0.5;entryY=1;entryDx=0;entryDy=0;exitX=0.5;exitY=1;exitDx=0;exitDy=0;" edge="1" parent="1" source="t5ZoXOPLaymug95pswVh-19" target="t5ZoXOPLaymug95pswVh-32">
          <mxGeometry relative="1" as="geometry">
            <mxPoint x="-100" y="1082" as="sourcePoint" />
            <mxPoint x="38" y="1070" as="targetPoint" />
          </mxGeometry>
        </mxCell>
        <mxCell id="t5ZoXOPLaymug95pswVh-77" value="" style="endArrow=classic;html=1;rounded=0;entryX=0.057;entryY=0.342;entryDx=0;entryDy=0;exitX=1;exitY=0;exitDx=0;exitDy=0;entryPerimeter=0;" edge="1" parent="1" target="t5ZoXOPLaymug95pswVh-29">
          <mxGeometry relative="1" as="geometry">
            <mxPoint x="90" y="520" as="sourcePoint" />
            <mxPoint x="228" y="508" as="targetPoint" />
          </mxGeometry>
        </mxCell>
        <mxCell id="t5ZoXOPLaymug95pswVh-78" value="" style="endArrow=classic;html=1;rounded=0;entryX=0;entryY=1;entryDx=0;entryDy=0;exitX=1;exitY=0;exitDx=0;exitDy=0;" edge="1" parent="1" source="t5ZoXOPLaymug95pswVh-18">
          <mxGeometry relative="1" as="geometry">
            <mxPoint x="440" y="804" as="sourcePoint" />
            <mxPoint x="606" y="520" as="targetPoint" />
          </mxGeometry>
        </mxCell>
      </root>
    </mxGraphModel>
  </diagram>
</mxfile>
